<svg width="178" height="44" viewBox="0 0 178 44" fill="none" xmlns="http://www.w3.org/2000/svg">
<path d="M21.0682 22.0727C23.6438 22.558 25.7341 23.5098 27.3392 24.9283C28.9816 26.3467 29.8028 28.4744 29.8028 31.3112C29.8028 35.4546 28.3097 38.3848 25.3235 40.1019C22.3747 41.7816 18.2313 42.6215 12.8935 42.6215H0.407471V3.81959H11.3817C16.8315 3.81959 20.9935 4.60347 23.8678 6.17122C26.742 7.70165 28.1791 10.2212 28.1791 13.73C28.1791 16.007 27.4885 17.8547 26.1074 19.2731C24.7636 20.6543 23.0839 21.5875 21.0682 22.0727ZM9.59002 10.3146V19.3291H13.0055C16.8875 19.3291 18.8286 17.7614 18.8286 14.6259C18.8286 13.0581 18.306 11.957 17.2608 11.3224C16.2156 10.6505 14.5546 10.3146 12.2776 10.3146H9.59002ZM12.9495 35.9585C15.3758 35.9585 17.2048 35.6039 18.4366 34.8947C19.7058 34.1481 20.3403 32.7857 20.3403 30.8073C20.3403 27.2239 18.1007 25.4322 13.6214 25.4322H9.59002V35.9585H12.9495Z" fill="black"/>
<path d="M50.922 12.0503C52.0045 12.0503 52.9937 12.1809 53.8895 12.4422L52.4897 21.0089C51.3699 20.7476 50.4741 20.6169 49.8022 20.6169C48.0478 20.6169 46.704 21.2328 45.7708 22.4646C44.8749 23.6591 44.1657 25.4695 43.6431 27.8958V42.6215H34.7965V12.8902H42.5233L43.2512 18.6572C43.9231 16.6042 44.9309 14.9992 46.2747 13.842C47.6558 12.6475 49.2049 12.0503 50.922 12.0503Z" fill="black"/>
<path d="M81.4984 27.1679C81.4984 28.3997 81.4424 29.4635 81.3304 30.3594H62.9093C63.208 32.8603 63.9172 34.6147 65.037 35.6226C66.1568 36.6304 67.7059 37.1343 69.6843 37.1343C70.8787 37.1343 72.0359 36.929 73.1557 36.5184C74.2755 36.0705 75.4887 35.3986 76.7951 34.5027L80.4346 39.43C76.9631 42.1922 73.0997 43.5733 68.8444 43.5733C64.0292 43.5733 60.3337 42.1549 57.7582 39.318C55.1826 36.4811 53.8948 32.6737 53.8948 27.8958C53.8948 24.8723 54.436 22.166 55.5185 19.7771C56.601 17.3508 58.1874 15.4471 60.2778 14.066C62.3681 12.6475 64.869 11.9383 67.7806 11.9383C72.0732 11.9383 75.4327 13.2821 77.859 15.9697C80.2853 18.6572 81.4984 22.39 81.4984 27.1679ZM72.8198 24.6483C72.7451 20.0944 71.14 17.8174 68.0045 17.8174C66.4741 17.8174 65.2796 18.3773 64.4211 19.4971C63.5999 20.6169 63.096 22.4646 62.9093 25.0402H72.8198V24.6483Z" fill="black"/>
<path d="M103.881 11.9383C106.457 11.9383 108.473 12.7222 109.928 14.2899C111.384 15.8577 112.112 18.06 112.112 20.8969V42.6215H103.265V22.4087C103.265 20.9156 103.023 19.8891 102.538 19.3291C102.09 18.7319 101.399 18.4333 100.466 18.4333C98.6741 18.4333 96.9571 19.7211 95.3146 22.2967V42.6215H86.468V12.8902H94.1948L94.8107 16.4176C96.0799 14.9245 97.4423 13.8047 98.8981 13.0581C100.391 12.3116 102.052 11.9383 103.881 11.9383Z" fill="black"/>
<path d="M145.435 1.07603V42.6215H137.596L137.148 39.15C135.058 42.0989 132.24 43.5733 128.694 43.5733C124.998 43.5733 122.18 42.1549 120.239 39.318C118.335 36.4811 117.383 32.599 117.383 27.6718C117.383 24.6483 117.887 21.9421 118.895 19.5531C119.903 17.1642 121.322 15.2978 123.151 13.954C125.017 12.6102 127.145 11.9383 129.534 11.9383C132.37 11.9383 134.722 12.8715 136.588 14.7379V0.124176L145.435 1.07603ZM131.437 37.0783C133.49 37.0783 135.207 35.9585 136.588 33.7189V20.8969C135.879 20.0384 135.151 19.4038 134.405 18.9932C133.696 18.5826 132.874 18.3773 131.941 18.3773C130.299 18.3773 128.992 19.1425 128.022 20.6729C127.051 22.2034 126.566 24.555 126.566 27.7278C126.566 31.1993 126.977 33.6255 127.798 35.0067C128.656 36.3878 129.869 37.0783 131.437 37.0783Z" fill="black"/>
<path d="M175.984 33.9988C175.984 35.1186 176.134 35.9398 176.432 36.4624C176.768 36.985 177.291 37.377 178 37.6382L176.152 43.4053C174.323 43.256 172.83 42.8641 171.673 42.2295C170.516 41.5576 169.62 40.5125 168.985 39.094C167.044 42.0802 164.058 43.5733 160.027 43.5733C157.078 43.5733 154.726 42.7148 152.972 40.9977C151.218 39.2807 150.34 37.041 150.34 34.2788C150.34 31.0313 151.535 28.549 153.924 26.832C156.313 25.1149 159.766 24.2564 164.282 24.2564H167.306V22.9686C167.306 21.2142 166.932 20.0197 166.186 19.3851C165.439 18.7132 164.133 18.3773 162.266 18.3773C161.296 18.3773 160.12 18.5266 158.739 18.8252C157.358 19.0865 155.94 19.4598 154.484 19.945L152.468 14.122C154.334 13.4127 156.238 12.8715 158.179 12.4982C160.157 12.1249 161.987 11.9383 163.666 11.9383C167.922 11.9383 171.038 12.8155 173.017 14.5699C174.995 16.3243 175.984 18.9559 175.984 22.4646V33.9988ZM162.602 37.2463C164.618 37.2463 166.186 36.2945 167.306 34.3908V29.1276H165.122C163.106 29.1276 161.595 29.4822 160.587 30.1914C159.616 30.9006 159.131 32.0018 159.131 33.4949C159.131 34.6894 159.43 35.6226 160.027 36.2945C160.661 36.929 161.52 37.2463 162.602 37.2463Z" fill="black"/>
</svg>
